<svg xmlns="http://www.w3.org/2000/svg" version="1.1" xmlns:xlink="http://www.w3.org/1999/xlink" xmlns:svgjs="http://svgjs.dev/svgjs" width="100%" height="100%" viewBox="0 0 1000 600"><rect width="1000" height="600" x="0" y="0" fill="#ed33a4"/><g><circle r="166.66666666666666" cx="447.2088419596354" cy="469.431044553573" fill="#f7f7f9" transform="matrix(0.445565901328909,0,0,0.44556590132890894,0,90.83754949833857)"/><path d="M458.42193706043764 394.43105310624753L458.42193706043764 394.43105310624753Q469.3157917648199 394.43105310624753 480.40916761763407 398.02243377802193Q491.4626392407619 401.6138144497963 502.07716433733947 409.0759054011497L502.07716433733947 409.0759054011497L489.14819391895173 425.75587341005735Q481.12744375198895 419.131771282118 473.3461189631445 416.1389540556393Q465.6046984039864 413.10623259947425 458.42193706043764 413.10623259947425L458.42193706043764 413.10623259947425Q449.80262344817913 413.10623259947425 442.46024518588484 417.13655979779884Q435.15777115327694 421.1668869961234 429.5312747674971 428.4693610287313Q423.94468261140366 435.8117392910256 420.9119611552386 446.1469347797985Q417.9191439287599 456.4821302685715 417.9191439287599 469.13177107915453L417.9191439287599 469.13177107915453Q417.9191439287599 496.1469345768351 430.12983821279283 510.5124572639326Q442.34053249682574 524.87797995103 461.01571199005247 524.87797995103L461.01571199005247 524.87797995103Q469.3157917648199 524.87797995103 477.2168292427235 522.2842050214153Q485.11786672062715 519.6904300918004 493.73718033288566 514.8221140700618L493.73718033288566 514.8221140700618L501.51850512173013 530.0655298102598Q490.02608697205216 537.2482911538086 479.37165764578816 540.8396718255829Q468.75713254921055 544.4310524973573 455.5488325230182 544.4310524973573L455.5488325230182 544.4310524973573Q437.15298263759604 544.4310524973573 422.9470768692441 535.0934627507439Q408.7012668712057 525.7558730041305 400.5208997854974 508.5172457796136Q392.34053269978915 491.27861855509656 392.34053269978915 467.97454841824947L392.34053269978915 467.97454841824947Q392.34053269978915 445.5882755641892 401.39879283859784 429.06792447402705Q410.41714874772015 412.547573383865 425.5009475691725 403.4893132450562Q440.5847463906249 394.43105310624753 458.42193706043764 394.43105310624753Z " fill="#ed33a4&#9;" transform="matrix(0.445565901328909,0,0,0.44556590132890894,0,90.83754949833857)"/><path d="M761.4830437587982 544.2160045720011L761.4830437587982 544.2160045720011Q744.8163768642523 544.2160045720011 732.7196025053079 538.4095528797077Q720.6228281463632 532.6031011874144 712.6927205110551 522.6568644922822Q704.762612875747 512.6837460763523 700.9991719640755 500.10310074305Q697.2088493316062 487.52245540974764 697.2088493316062 474.1622401733133L697.2088493316062 474.1622401733133Q697.2088493316062 459.64611094257987 701.4830429384332 446.2052505437526Q705.7303548244627 432.7375084241276 713.9561613885448 422.09234698825645Q722.1819679526272 411.4471855523852 734.574441240346 405.2643897689247Q746.9669145280648 399.0547122646664 763.203473889848 399.0547122646664L763.203473889848 399.0547122646664Q769.977667530857 399.0547122646664 778.0153020493558 400.721378954121Q786.0529365678544 402.36116392277796 793.4185280664119 405.6407338600918Q800.7572378441715 408.9471855182033 805.4077755421658 414.3504113985319L805.4077755421658 414.3504113985319L795.3540119638429 425.5869706919515Q791.6712162145643 421.3127770851244 786.0529365678544 418.51707812216836Q780.4346569211448 415.7213791592123 774.3325063000771 414.1622393529483Q768.2572373998072 412.60309954668435 762.827129798681 412.60309954668435L762.827129798681 412.60309954668435Q751.5905705052613 412.60309954668435 743.0959467332025 417.7375082190364Q734.574441240346 422.87191689138837 728.7679895480526 431.5815944298285Q722.9615378557592 440.2912719682686 719.9507851264218 451.12460544972333Q716.9669141178822 461.95793893117815 716.9669141178822 473.1944982245978L716.9669141178822 473.1944982245978Q716.9669141178822 490.61385330147795 722.5583120437943 503.3020255179709Q728.1765916905042 515.9633160136661 738.4454090352083 522.8450365378658Q748.6873446591146 529.6998753412677 762.6389577530974 529.6998753412677L762.6389577530974 529.6998753412677Q770.7572374339891 529.6998753412677 780.2464848755611 527.3880473526694Q789.7357323171332 525.0762193640711 799.789495895456 520.022455854112L799.789495895456 520.022455854112L805.7841196333329 531.0708431019481Q801.5368077473036 534.1622409936783 796.0260549837843 536.5815958654673Q790.5153022202652 539.0009507372562 784.4131515991976 540.7482625891037Q778.31100097813 542.4955744409513 772.3970224026459 543.3557895064762Q766.5099255479596 544.2160045720011 761.4830437587982 544.2160045720011ZM855.1389590178268 544.4310583383824L855.1389590178268 544.4310583383824Q841.0260555990582 544.4310583383824 831.4292812742955 537.3611657685992Q821.8593886703304 530.291273198816 817.1282058099432 518.866541859813Q812.3701412287584 507.4418105208097 812.3701412287584 494.48482109634017L812.3701412287584 494.48482109634017Q812.3701412287584 484.8074016091845 815.273367074905 475.61385309638666Q818.1765929210517 466.4203045835888 823.7948725677616 459.1622399682221Q829.4131522144713 451.90417535285536 837.6389587785536 447.6568634668259Q845.8647653426359 443.3826698599988 856.3217547329235 443.3826698599988L856.3217547329235 443.3826698599988Q870.6228301972758 443.3826698599988 880.2196045220385 450.34503554659136Q889.7894971260035 457.3342829539816 894.5475617071884 468.7321325721871Q899.2787445675756 480.1568639111903 899.2787445675756 493.32890710204106L899.2787445675756 493.32890710204106Q899.2787445675756 503.19449863478025 896.3755187214289 512.3880471475782Q893.4722928752822 521.581595660376 887.961540111763 528.7321333925522Q882.4507873482438 535.9095528455259 874.2249807841615 540.1568647315553Q865.9991742200792 544.4310583383824 855.1389590178268 544.4310583383824ZM855.3540127842081 532.2267570962472L855.3540127842081 532.2267570962472Q862.8808946075513 532.2267570962472 868.0153032799033 528.6514882301592Q873.1497119522553 525.0762193640711 876.3486367271763 519.2697676717777Q879.5475615020972 513.4633159794844 880.8916475419799 506.76976750086834Q882.2357335818626 500.10310074305 882.2357335818626 493.8934232387918L882.2357335818626 493.8934232387918Q882.2357335818626 487.52245540974764 880.9991744251705 480.82890693113166Q879.7357335476808 474.1622401733133 876.832507701534 468.4633153642106Q873.9292818553873 462.7375088343101 868.7948731830353 459.1622399682221Q863.6604645106833 455.586971102134 856.1067009665423 455.586971102134L856.1067009665423 455.586971102134Q848.5798191431991 455.586971102134 843.445410470847 459.1622399682221Q838.311001798495 462.7375088343101 835.2196039067647 468.54396052660354Q832.1282060150344 474.3504122188969 830.7572382543541 481.0439606975129Q829.4131522144713 487.71062745533123 829.4131522144713 493.8934232387918L829.4131522144713 493.8934232387918Q829.4131522144713 499.9149286974664 830.7572382543541 506.58159545528474Q832.1282060150344 513.2482622131031 835.1120770235741 519.0547139053965Q838.1228297529115 524.8611655976899 843.1497115420729 528.5439613469684Q848.1765933312342 532.2267570962472 855.3540127842081 532.2267570962472ZM915.5421856501566 446.47406775172914L933.1497127726203 444.1622397631308Q934.4937988125031 447.4418097004447 935.4615407612187 450.9364334041398Q936.4292827099342 454.4310571078349 936.8325085218991 457.8987990907323L936.8325085218991 457.8987990907323Q942.6389602141925 452.0923473984389 950.5690678495006 447.7375086292189Q958.4991754848087 443.3826698599988 966.8325089320816 443.3826698599988L966.8325089320816 443.3826698599988Q977.4776703679528 443.3826698599988 983.9561650801876 447.8450355124095Q990.4346597924223 452.2805194440225 993.337885638569 459.94180987135405Q996.2411114847157 467.57621857788797 996.2411114847157 477.65686387700845L996.2411114847157 477.65686387700845L996.2411114847157 541.9041765834029L980.3808962140995 541.9041765834029L980.3808962140995 482.8719177117534Q980.3808962140995 476.8772939738764 979.4937994277769 471.07084228158305Q978.6335843622519 465.26439058928963 975.2464875417475 461.47406795682036Q971.8593907212429 457.7106270451487 964.1174551315185 457.7106270451487L964.1174551315185 457.7106270451487Q959.4669174335241 457.7106270451487 954.6282076899464 459.5385840593892Q949.7894979463686 461.3934227944274 945.5421860603391 464.2966486405741Q941.2679924535121 467.1998744867208 937.8002504706146 470.4794444240346L937.8002504706146 470.4794444240346L937.8002504706146 541.9041765834029L921.9131534792008 541.9041765834029L921.9131534792008 473.78589608214617Q921.9131534792008 469.9149282872839 921.34863734245 464.78051961493185Q920.7572394849016 459.64611094257987 919.4131534450189 454.6998743158114Q918.0421856843385 449.7805194098406 915.5421856501566 446.47406775172914L915.5421856501566 446.47406775172914ZM1021.4024021513204 446.47406775172914L1039.009929273784 444.1622397631308Q1040.3808970344644 447.4418097004447 1041.34863898318 450.9364334041398Q1042.3163809318958 454.4310571078349 1042.6927250230628 457.8987990907323L1042.6927250230628 457.8987990907323Q1048.499176715356 452.0923473984389 1056.4292843506641 447.7375086292189Q1064.3862737067702 443.3826698599988 1072.6927254332454 443.3826698599988L1072.6927254332454 443.3826698599988Q1083.3378868691166 443.3826698599988 1089.8163815813514 447.8450355124095Q1096.3217580143837 452.2805194440225 1099.2249838605303 459.94180987135405Q1102.128209706677 467.57621857788797 1102.128209706677 477.65686387700845L1102.128209706677 477.65686387700845L1102.128209706677 541.9041765834029L1086.2411127152632 541.9041765834029L1086.2411127152632 482.8719177117534Q1086.2411127152632 476.8772939738764 1085.3808976497385 471.07084228158305Q1084.4938008634158 465.26439058928963 1081.1067040429111 461.47406795682036Q1077.719607222407 457.7106270451487 1069.9776716326824 457.7106270451487L1069.9776716326824 457.7106270451487Q1065.3540156554855 457.7106270451487 1060.515305911908 459.5385840593892Q1055.67659616833 461.3934227944274 1051.4024025615029 464.2966486405741Q1047.1550906754733 467.1998744867208 1043.6604669717785 470.4794444240346L1043.6604669717785 470.4794444240346L1043.6604669717785 541.9041765834029L1027.8002517011623 541.9041765834029L1027.8002517011623 473.78589608214617Q1027.8002517011623 469.9149282872839 1027.2088538436137 464.78051961493185Q1026.644337706863 459.64611094257987 1025.2733699461828 454.6998743158114Q1023.9292839062999 449.7805194098406 1021.4024021513204 446.47406775172914L1021.4024021513204 446.47406775172914ZM1170.4346622535172 443.3826698599988L1170.4346622535172 443.3826698599988Q1182.047565638104 443.3826698599988 1189.9776732734122 448.14073444118367Q1197.9346626295182 452.87191730157093 1201.886275586773 461.28589591123676Q1205.8647702648261 469.69987452090265 1205.8647702648261 480.9364338143223L1205.8647702648261 480.9364338143223Q1205.8647702648261 483.6514876148854 1205.5690713360518 486.4471865778415Q1205.2733724072777 489.2697672615952 1204.8970283161107 492.3611651533255L1204.8970283161107 492.3611651533255L1143.7411135014463 492.3611651533255Q1143.7411135014463 510.7482621789212 1151.859393182338 520.802025757244Q1159.9776728632296 530.8826710563644 1173.5260601452478 530.8826710563644L1173.5260601452478 530.8826710563644Q1179.1443397919575 530.8826710563644 1185.2464904130252 529.1353592045169Q1191.3486410340925 527.3880473526694 1197.9346626295182 523.8934236489742L1197.9346626295182 523.8934236489742L1203.929286367395 533.57084313613Q1197.155092726386 539.0009507372562 1188.6335872335294 541.7160045378193Q1180.1120817406731 544.4310583383824 1171.402404202233 544.4310583383824L1171.402404202233 544.4310583383824Q1159.9776728632296 544.4310583383824 1151.5636942535639 540.2643916147459Q1143.1497156438977 536.0977248911095 1137.6389628803786 529.0278323213263Q1132.1282101168595 521.9579397515431 1129.4131563162964 513.0600901675195Q1126.6981025157334 504.1622405834958 1126.6981025157334 494.86116518750737L1126.6981025157334 494.86116518750737Q1126.6981025157334 485.1837457003517 1129.4131563162964 476.09772407074445Q1132.1282101168595 467.0117024411372 1137.6389628803786 459.5385840593892Q1143.1497156438977 452.0923473984389 1151.2679953247898 447.7375086292189Q1159.413156726479 443.3826698599988 1170.4346622535172 443.3826698599988ZM1168.902404168051 455.586971102134L1168.902404168051 455.586971102134Q1162.3163825726256 455.586971102134 1157.2895007834643 459.2697668514127Q1152.2357372735053 462.9256808798937 1149.144339381775 468.65148740979413Q1146.0529414900448 474.3504122188969 1144.8970274957455 480.34503595677387L1144.8970274957455 480.34503595677387L1189.0099313246965 480.34503595677387Q1189.224985091078 472.2267562758822 1186.805630219289 466.716003512363Q1184.3862753475 461.2052507488438 1179.8163828118988 458.3826700650901Q1175.2733719970952 455.586971102134 1168.902404168051 455.586971102134ZM1266.8325130339067 443.3826698599988L1266.8325130339067 443.3826698599988Q1274.1712228116664 443.3826698599988 1281.6443411934144 445.80202473178775Q1289.0905778543647 448.2213796035767 1296.2411155865407 453.2482613927381L1296.2411155865407 453.2482613927381L1287.5314380481007 464.48482068615766Q1282.128212167772 460.022455033747 1276.8862766122293 458.0063259739229Q1271.6712227774844 455.9633151933012 1266.8325130339067 455.9633151933012L1266.8325130339067 455.9633151933012Q1261.0260613416133 455.9633151933012 1256.079824714845 458.6783689938643Q1251.160469808874 461.3934227944274 1247.3701471764048 466.31277770039816Q1243.606706264733 471.25901432716665 1241.5636954841116 478.2213800137592Q1239.5475664242872 485.1837457003517 1239.5475664242872 493.7052511932082L1239.5475664242872 493.7052511932082Q1239.5475664242872 511.9041761732204 1247.7733729883696 521.581595660376Q1255.999179552452 531.2590151475317 1268.5798248857543 531.2590151475317L1268.5798248857543 531.2590151475317Q1274.1712228116664 531.2590151475317 1279.493803529602 529.5117032956841Q1284.8163842475376 527.7643914438365 1290.622835939831 524.4848215065226L1290.622835939831 524.4848215065226L1295.8647714953736 534.7536388512267Q1288.122835905649 539.5923485948047 1280.9454164526753 542.0117034665934Q1273.7948787204991 544.4310583383824 1264.8970291364758 544.4310583383824L1264.8970291364758 544.4310583383824Q1252.5045558487568 544.4310583383824 1242.9346632447919 538.1407356717311Q1233.337888920029 531.8504130050801 1227.8271361565098 520.2375096204933Q1222.3163833929907 508.62460623590647 1222.3163833929907 492.9256812900762L1222.3163833929907 492.9256812900762Q1222.3163833929907 477.845035922592 1228.4185340140584 466.716003512363Q1234.4938029143282 455.586971102134 1244.6550933758417 449.48482048106644Q1254.8163838373553 443.3826698599988 1266.8325130339067 443.3826698599988ZM1331.0798257403012 418.22137919339417L1342.8809011704716 418.22137919339417Q1341.5368151305888 424.8074007888195 1340.4615462986826 431.8772933586027Q1339.413159187574 438.94718592838586 1339.0099333756093 445.7213795693948L1339.0099333756093 445.7213795693948L1364.171224042214 445.7213795693948L1360.8916541049002 457.8987990907323L1339.0099333756093 457.8987990907323L1339.0099333756093 519.4579397173613Q1339.0099333756093 523.1407354666399 1339.897030161932 525.936434429596Q1340.7572452274567 528.7321333925522 1342.9884280536621 530.1837463156255Q1345.2196108798676 531.6353592386988 1349.2787507203134 531.6353592386988L1349.2787507203134 531.6353592386988Q1352.3701486120435 531.6353592386988 1355.4615465037741 531.0708431019481Q1358.5798261163018 530.4794452443996 1361.4830519624484 529.6998753412677L1361.4830519624484 529.6998753412677L1364.171224042214 540.5600905435201Q1359.332514298636 541.9041765834029 1354.977675529416 542.9794454153091Q1350.6228367601962 544.0278325264176 1345.031438834284 544.0278325264176L1345.031438834284 544.0278325264176Q1332.638965546565 544.0278325264176 1327.8002558029875 537.4418109309922Q1322.9615460594096 530.8826710563644 1322.9615460594096 519.0547139053965L1322.9615460594096 519.0547139053965L1322.9615460594096 457.8987990907323L1308.6335888742597 457.8987990907323L1308.6335888742597 448.2213796035767Q1314.4400405665529 448.0332075579931 1318.3110083614151 445.12998171184637Q1322.1819761562774 442.2267558656997 1324.708857911257 437.68374505089605Q1327.208857945439 433.14073423609244 1328.7679977517028 428.0063255637404Q1330.300255837169 422.87191689138837 1331.0798257403012 418.22137919339417L1331.0798257403012 418.22137919339417ZM1414.493805375423 541.9041765834029L1414.493805375423 414.3504113985319L1372.6927295350706 414.3504113985319L1372.6927295350706 400.99019616209756L1475.2733760989204 400.99019616209756L1475.2733760989204 414.3504113985319L1432.8809024010193 414.3504113985319L1432.8809024010193 541.9041765834029L1414.493805375423 541.9041765834029ZM1509.923914207097 443.3826698599988L1509.923914207097 443.3826698599988Q1521.5368175916838 443.3826698599988 1529.4669252269919 448.14073444118367Q1537.3970328623 452.87191730157093 1541.3755275403528 461.28589591123676Q1545.354022218406 469.69987452090265 1545.354022218406 480.9364338143223L1545.354022218406 480.9364338143223Q1545.354022218406 483.6514876148854 1545.0583232896315 486.4471865778415Q1544.7626243608574 489.2697672615952 1544.3862802696904 492.3611651533255L1544.3862802696904 492.3611651533255L1483.2034837342285 492.3611651533255Q1483.2034837342285 510.7482621789212 1491.348645135918 520.802025757244Q1499.4669248168093 530.8826710563644 1513.0153120988275 530.8826710563644L1513.0153120988275 530.8826710563644Q1518.6335917455372 530.8826710563644 1524.7357423666049 529.1353592045169Q1530.8378929876726 527.3880473526694 1537.3970328623 523.8934236489742L1537.3970328623 523.8934236489742L1543.4185383209747 533.57084313613Q1536.6443446799658 539.0009507372562 1528.1228391871095 541.7160045378193Q1519.6013336942528 544.4310583383824 1510.8916561558126 544.4310583383824L1510.8916561558126 544.4310583383824Q1499.4669248168093 544.4310583383824 1491.0529462071436 540.2643916147459Q1482.6389675974779 536.0977248911095 1477.1282148339587 529.0278323213263Q1471.5905803496416 521.9579397515431 1468.902408269876 513.0600901675195Q1466.187354469313 504.1622405834958 1466.187354469313 494.86116518750737L1466.187354469313 494.86116518750737Q1466.187354469313 485.1837457003517 1468.902408269876 476.09772407074445Q1471.5905803496416 467.0117024411372 1477.1282148339587 459.5385840593892Q1482.6389675974779 452.0923473984389 1490.7572472783695 447.7375086292189Q1498.9024086800587 443.3826698599988 1509.923914207097 443.3826698599988ZM1508.364774400833 455.586971102134L1508.364774400833 455.586971102134Q1501.8056345262053 455.586971102134 1496.7518710162462 459.2697668514127Q1491.7249892270847 462.9256808798937 1488.6335913353546 468.65148740979413Q1485.5421934436245 474.3504122188969 1484.3862794493252 480.34503595677387L1484.3862794493252 480.34503595677387L1528.4991832782766 480.34503595677387Q1528.6873553238602 472.2267562758822 1526.2680004520712 466.716003512363Q1523.8486455802822 461.2052507488438 1519.3056347654783 458.3826700650901Q1514.7626239506749 455.586971102134 1508.364774400833 455.586971102134ZM1606.3217649874864 443.3826698599988L1606.3217649874864 443.3826698599988Q1613.6604747652464 443.3826698599988 1621.1067114261964 445.80202473178775Q1628.5798298079444 448.2213796035767 1635.7303675401204 453.2482613927381L1635.7303675401204 453.2482613927381L1627.0206900016806 464.48482068615766Q1621.5905824005545 460.022455033747 1616.3755285658094 458.0063259739229Q1611.1604747310644 455.9633151933012 1606.3217649874864 455.9633151933012L1606.3217649874864 455.9633151933012Q1600.5153132951932 455.9633151933012 1595.5690766684247 458.6783689938643Q1590.6228400416562 461.3934227944274 1586.8593991299845 466.31277770039816Q1583.0959582183127 471.25901432716665 1581.0529474376913 478.2213800137592Q1579.0099366570694 485.1837457003517 1579.0099366570694 493.7052511932082L1579.0099366570694 493.7052511932082Q1579.0099366570694 511.9041761732204 1587.2357432211516 521.581595660376Q1595.4615497852337 531.2590151475317 1608.0421951185363 531.2590151475317L1608.0421951185363 531.2590151475317Q1613.6604747652464 531.2590151475317 1618.983055483182 529.5117032956841Q1624.3056362011175 527.7643914438365 1630.1120878934107 524.4848215065226L1630.1120878934107 524.4848215065226L1635.3540234489533 534.7536388512267Q1627.6120878592287 539.5923485948047 1620.4346684062552 542.0117034665934Q1613.2841306740788 544.4310583383824 1604.386281090055 544.4310583383824L1604.386281090055 544.4310583383824Q1591.9938078023365 544.4310583383824 1582.397033477574 538.1407356717311Q1572.827140873609 531.8504130050801 1567.3163881100895 520.2375096204933Q1561.8056353465704 508.62460623590647 1561.8056353465704 492.9256812900762L1561.8056353465704 492.9256812900762Q1561.8056353465704 477.845035922592 1567.8809042468401 466.716003512363Q1573.9830548679083 455.586971102134 1584.1443453294214 449.48482048106644Q1594.3056357909345 443.3826698599988 1606.3217649874864 443.3826698599988ZM1653.741120474549 394.43105628746986L1672.1282175001447 394.43105628746986L1672.1282175001447 457.1192291876003Q1678.3110132836055 451.31277749530693 1685.4615510157814 447.2536376548611Q1692.6389704687554 443.19449781441523 1701.3486480071956 443.19449781441523L1701.3486480071956 443.19449781441523Q1711.9938094430668 443.19449781441523 1718.3647772721106 447.6568634668259Q1724.7626268219524 452.0923473984389 1727.6658526680994 459.75363782577045Q1730.569078514246 467.3880465323044 1730.569078514246 477.44181011062716L1730.569078514246 477.44181011062716L1730.569078514246 541.9041765834029L1714.7088632436298 541.9041765834029L1714.7088632436298 482.68374566616984Q1714.7088632436298 476.6891219282929 1713.8217664573071 470.96331539839247Q1712.9615513917825 465.26439058928963 1709.6550997336708 461.3934227944274Q1706.3755297963571 457.5224549995651 1698.633594206632 457.5224549995651L1698.633594206632 457.5224549995651Q1693.7948844630546 457.5224549995651 1689.0637016026672 459.45793889699627Q1684.3056370214822 461.3934227944274 1680.0583251354528 464.2966486405741Q1675.784131528626 467.1998744867208 1672.1282175001447 470.2912723784511L1672.1282175001447 470.2912723784511L1672.1282175001447 541.9041765834029L1656.241120508731 541.9041765834029L1656.241120508731 405.8289059056754L1653.741120474549 394.43105628746986ZM1782.0475738417545 413.3826694498163L1782.0475738417545 413.3826694498163Q1782.0475738417545 418.22137919339417 1778.6604770212502 421.71600289708925Q1775.2733802007456 425.1837448799867 1770.246498411584 425.1837448799867L1770.246498411584 425.1837448799867Q1765.4077886680066 425.1837448799867 1762.020691847502 421.71600289708925Q1758.6335950269977 418.22137919339417 1758.6335950269977 413.3826694498163L1758.6335950269977 413.3826694498163Q1758.6335950269977 408.5439597062385 1762.020691847502 405.0762177233411Q1765.4077886680066 401.58159401964593 1770.246498411584 401.58159401964593L1770.246498411584 401.58159401964593Q1775.085208155162 401.58159401964593 1778.5798318588572 405.0762177233411Q1782.0475738417545 408.5439597062385 1782.0475738417545 413.3826694498163ZM1760.1927348332615 445.7213795693948L1778.5798318588572 445.7213795693948L1778.5798318588572 541.9041765834029L1762.5045628218595 541.9041765834029L1762.5045628218595 457.1192291876003L1760.1927348332615 445.7213795693948ZM1847.074456451281 443.3826698599988L1847.074456451281 443.3826698599988Q1858.6873598358675 443.3826698599988 1866.6443491919736 448.14073444118367Q1874.5744568272817 452.87191730157093 1878.5260697845365 461.28589591123676Q1882.5045644625898 469.69987452090265 1882.5045644625898 480.9364338143223L1882.5045644625898 480.9364338143223Q1882.5045644625898 483.6514876148854 1882.2088655338152 486.4471865778415Q1881.9131666050412 489.2697672615952 1881.536822513874 492.3611651533255L1881.536822513874 492.3611651533255L1820.3809076992097 492.3611651533255Q1820.3809076992097 510.7482621789212 1828.4991873801018 520.802025757244Q1836.644348781791 530.8826710563644 1850.1927360638092 530.8826710563644L1850.1927360638092 530.8826710563644Q1855.7841339897209 530.8826710563644 1861.8862846107886 529.1353592045169Q1867.9884352318559 527.3880473526694 1874.5744568272817 523.8934236489742L1874.5744568272817 523.8934236489742L1880.5690805651584 533.57084313613Q1873.7948869241495 539.0009507372562 1865.2733814312928 541.7160045378193Q1856.7518759384366 544.4310583383824 1848.0421983999968 544.4310583383824L1848.0421983999968 544.4310583383824Q1836.644348781791 544.4310583383824 1828.2034884513278 540.2643916147459Q1819.7895098416616 536.0977248911095 1814.2787570781425 529.0278323213263Q1808.7680043146233 521.9579397515431 1806.0529505140603 513.0600901675195Q1803.3378967134968 504.1622405834958 1803.3378967134968 494.86116518750737L1803.3378967134968 494.86116518750737Q1803.3378967134968 485.1837457003517 1806.0529505140603 476.09772407074445Q1808.7680043146233 467.0117024411372 1814.2787570781425 459.5385840593892Q1819.7895098416616 452.0923473984389 1827.9346712433507 447.7375086292189Q1836.0529509242424 443.3826698599988 1847.074456451281 443.3826698599988ZM1845.5421983658148 455.586971102134L1845.5421983658148 455.586971102134Q1838.9561767703894 455.586971102134 1833.929294981228 459.2697668514127Q1828.9024131920664 462.9256808798937 1825.7841335795383 468.65148740979413Q1822.6927356878082 474.3504122188969 1821.5368216935094 480.34503595677387L1821.5368216935094 480.34503595677387L1865.6766072432579 480.34503595677387Q1865.8647792888414 472.2267562758822 1863.4454244170524 466.716003512363Q1861.0260695452635 461.2052507488438 1856.48305873046 458.3826700650901Q1851.913166194859 455.586971102134 1845.5421983658148 455.586971102134ZM1937.665855539377 443.3826698599988L1937.665855539377 443.3826698599988Q1944.2518771348023 443.3826698599988 1950.730371847037 445.0224548286558Q1957.2088665592714 446.6891215181103 1962.638974160398 450.15686350100776L1962.638974160398 450.15686350100776L1957.0206945136883 462.5493367887265Q1952.7733826276585 459.05471308503144 1947.531447072116 457.3342829539816Q1942.3163932373714 455.586971102134 1937.2895114482099 455.586971102134L1937.2895114482099 455.586971102134Q1930.112091995236 455.586971102134 1924.7895112773003 458.8665410394479Q1919.4669305593648 462.1729926975594 1919.4669305593648 468.7321325721871L1919.4669305593648 468.7321325721871Q1919.4669305593648 473.38267027018134 1921.6981133855702 476.4740681619116Q1923.9292962117756 479.59234777443953 1927.612091961054 481.71600371745427Q1931.2680059895351 483.83965966046895 1935.542199596362 485.9633156034837L1935.542199596362 485.9633156034837Q1940.38090933994 488.3020253128796 1945.300264245911 490.72138018466853Q1950.246500872679 493.14073505645746 1954.4131675963158 496.52783187696195Q1958.5798343199522 499.9149286974664 1961.1873612373247 504.6461115578536Q1963.7948881546972 509.3772944182408 1963.7948881546972 516.366541825631L1963.7948881546972 516.366541825631Q1963.7948881546972 526.0439613127867 1959.0637052943102 532.3342839794378Q1954.3056407131253 538.624606646089 1946.6712320065913 541.5278324922357Q1939.0099415792592 544.4310583383824 1930.112091995236 544.4310583383824L1930.112091995236 544.4310583383824Q1922.3701564055114 544.4310583383824 1914.6282208157868 542.28052067457Q1906.8862852260622 540.1568647315553 1900.300263630637 536.285896936693L1900.300263630637 536.285896936693L1907.0744572716458 524.4848215065226Q1911.7249949696402 527.9794452102178 1917.5314466619334 530.1031011532325Q1923.337898354227 532.2267570962472 1928.7680059553531 532.2267570962472L1928.7680059553531 532.2267570962472Q1936.106715733113 532.2267570962472 1941.6443502174297 528.7321333925522Q1947.1551029809489 525.2643914096548 1947.1551029809489 518.3020257230621L1947.1551029809489 518.3020257230621Q1947.1551029809489 513.4633159794844 1944.1443502516117 510.2643912045634Q1941.1604792430717 507.0654664296425 1936.5099415450777 504.538584674663Q1931.8594038470837 502.03858464048113 1926.8325220579222 499.69987493108516L1926.8325220579222 499.69987493108516Q1921.0260703656286 496.79664908493845 1915.5153176021095 493.409552264434Q1909.9776831177924 490.0224554439295 1906.5099411348951 484.8074016091845Q1903.0153174312 479.59234777443953 1903.0153174312 471.4471863727502L1903.0153174312 471.4471863727502Q1903.0153174312 462.1729926975594 1907.9615540579684 455.9633151933012Q1912.8809089639394 449.7805194098406 1920.837898320045 446.5815946349197Q1928.7680059553531 443.3826698599988 1937.665855539377 443.3826698599988Z " fill="#f7f7f9" transform="matrix(0.445565901328909,0,0,0.44556590132890894,0,90.83754949833857)"/></g></svg>